<?xml version="1.0" encoding="UTF-8" standalone="no"?>
<!-- Created with Inkscape (http://www.inkscape.org/) -->

<svg
   xmlns:dc="http://purl.org/dc/elements/1.1/"
   xmlns:cc="http://creativecommons.org/ns#"
   xmlns:rdf="http://www.w3.org/1999/02/22-rdf-syntax-ns#"
   xmlns:svg="http://www.w3.org/2000/svg"
   xmlns="http://www.w3.org/2000/svg"
   xmlns:sodipodi="http://sodipodi.sourceforge.net/DTD/sodipodi-0.dtd"
   xmlns:inkscape="http://www.inkscape.org/namespaces/inkscape"
   version="1.0"
   x="0.00000000"
   y="0.00000000"
   width="600.00000"
   height="600.00000"
   id="svg2"
   sodipodi:version="0.32"
   inkscape:version="0.48.0 r9654"
   sodipodi:docname="Brosen_windrose_Full-fr.svg"
   inkscape:label="napisy">
  <metadata
     id="metadata36">
    <rdf:RDF>
      <cc:Work
         rdf:about="">
        <dc:format>image/svg+xml</dc:format>
        <dc:type
           rdf:resource="http://purl.org/dc/dcmitype/StillImage" />
        <dc:title />
      </cc:Work>
    </rdf:RDF>
  </metadata>
  <sodipodi:namedview
     inkscape:window-height="724"
     inkscape:window-width="717"
     inkscape:pageshadow="2"
     inkscape:pageopacity="0.0"
     borderopacity="1.0"
     bordercolor="#666666"
     pagecolor="#ffffff"
     id="base"
     inkscape:zoom="0.70710678"
     inkscape:cx="484.35975"
     inkscape:cy="326.9797"
     inkscape:window-x="482"
     inkscape:window-y="25"
     inkscape:current-layer="layer5"
     showgrid="true"
     inkscape:object-nodes="false"
     inkscape:snap-center="false"
     inkscape:object-paths="false"
     inkscape:snap-intersection-paths="true"
     inkscape:snap-nodes="false"
     inkscape:window-maximized="0" />
  <defs
     id="defs4" />
  <g
     inkscape:groupmode="layer"
     id="layer7"
     inkscape:label="p4"
     style="display:inline">
    <path
       sodipodi:type="arc"
       style="opacity:1;fill:none;fill-opacity:1;fill-rule:nonzero;stroke:#000000;stroke-width:0.88720989;stroke-linecap:square;stroke-linejoin:miter;stroke-miterlimit:4;stroke-dasharray:none;stroke-dashoffset:0;stroke-opacity:1"
       id="path2408"
       sodipodi:cx="187.67506"
       sodipodi:cy="113.40358"
       sodipodi:rx="119.73839"
       sodipodi:ry="119.73839"
       d="M 307.41345 113.40358 A 119.73839 119.73839 0 1 1  67.936676,113.40358 A 119.73839 119.73839 0 1 1  307.41345 113.40358 z"
       transform="matrix(1.12713, 0, 0, 1.12713, 95.6565, 171.796)" />
  </g>
  <g
     style="display:inline"
     id="layer3" />
  <g
     style="display:inline"
     id="layer4" />
  <g
     inkscape:groupmode="layer"
     id="layer1"
     inkscape:label="p3"
     style="display:inline">
    <g
       id="g2362"
       transform="matrix(0.695009, 0, 0, 0.683713, 94.0003, 94.6945)">
      <path
         d="M 264.65488,281.35479 L 307.55343,299.12392 L 307.53867,299.13003 L 83.172594,392.06566 L 264.65488,281.35479"
         style="fill:#c2c2c2;fill-opacity:1;fill-rule:evenodd;stroke:#c2c2c2;stroke-width:1.0000006;stroke-linecap:square;stroke-linejoin:miter;stroke-miterlimit:4;stroke-dasharray:none;stroke-opacity:1;display:inline"
         id="path8773" />
      <path
         d="M 290.16697,342.94635 L 307.9361,300.0478 L 307.92135,300.05391 L 83.555271,392.98954 L 290.16697,342.94635"
         style="fill:#999999;fill-opacity:1;fill-rule:evenodd;stroke:#999999;stroke-width:1.0000006;stroke-linecap:square;stroke-linejoin:miter;stroke-miterlimit:4;stroke-dasharray:none;stroke-opacity:1;display:inline"
         id="path8775" />
      <path
         d="M 351.75849,317.43427 L 308.85994,299.66514 L 308.8747,299.65903 L 533.24078,206.7234 L 351.75849,317.43427"
         style="fill:#e1e1e1;fill-opacity:1;fill-rule:evenodd;stroke:#c2c2c2;stroke-width:1.0000006;stroke-linecap:square;stroke-linejoin:miter;stroke-miterlimit:4;stroke-dasharray:none;stroke-opacity:1;display:inline"
         id="path8779" />
      <path
         d="M 290.16693,342.94611 L 307.93606,300.04756 L 307.94217,300.06232 L 400.8778,524.4284 L 290.16693,342.94611"
         style="fill:#c2c2c2;fill-opacity:1;fill-rule:evenodd;stroke:#c2c2c2;stroke-width:1.0000006;stroke-linecap:square;stroke-linejoin:miter;stroke-miterlimit:4;stroke-dasharray:none;stroke-opacity:1;display:inline"
         id="path8787" />
      <path
         d="M 351.75849,317.43402 L 308.85994,299.66489 L 308.86605,299.67964 L 401.80168,524.04572 L 351.75849,317.43402"
         style="fill:#999999;fill-opacity:1;fill-rule:evenodd;stroke:#999999;stroke-width:1.0000006;stroke-linecap:square;stroke-linejoin:miter;stroke-miterlimit:4;stroke-dasharray:none;stroke-opacity:1;display:inline"
         id="path8789" />
      <path
         d="M 326.24641,255.8425 L 308.47728,298.74105 L 308.47117,298.72629 L 215.53554,74.360214 L 326.24641,255.8425"
         style="fill:#e1e1e1;fill-opacity:1;fill-rule:evenodd;stroke:#c2c2c2;stroke-width:1.0000006;stroke-linecap:square;stroke-linejoin:miter;stroke-miterlimit:4;stroke-dasharray:none;stroke-opacity:1;display:inline"
         id="path8793" />
      <path
         d="M 264.65485,281.3546 L 307.5534,299.12373 L 307.53864,299.12984 L 83.172563,392.06547 L 264.65485,281.3546"
         style="fill:#e1e1e1;fill-opacity:1;fill-rule:evenodd;stroke:#c2c2c2;stroke-width:1.0000006;stroke-linecap:square;stroke-linejoin:miter;stroke-miterlimit:4;stroke-dasharray:none;stroke-opacity:1;display:inline"
         id="path1397" />
      <path
         d="M 290.16693,342.94637 L 307.93606,300.04782 L 307.94217,300.06258 L 400.8778,524.42866 L 290.16693,342.94637"
         style="fill:#e1e1e1;fill-opacity:1;fill-rule:evenodd;stroke:#c2c2c2;stroke-width:1.0000006;stroke-linecap:square;stroke-linejoin:miter;stroke-miterlimit:4;stroke-dasharray:none;stroke-opacity:1;display:inline"
         id="path1405" />
      <g
         id="g2356">
        <path
           id="path8781"
           style="fill:#b4b4b4;fill-opacity:1;fill-rule:evenodd;stroke:#b4b4b4;stroke-width:1;stroke-linecap:square;stroke-linejoin:miter;stroke-miterlimit:4;stroke-dasharray:none;stroke-opacity:1;display:inline"
           d="M 326.2464,255.84271 L 308.47727,298.74126 L 308.49202,298.73515 L 532.8581,205.79952 L 326.2464,255.84271" />
        <path
           id="path8795"
           style="fill:#b4b4b4;fill-opacity:1;fill-rule:evenodd;stroke:#b4b4b4;stroke-width:1;stroke-linecap:square;stroke-linejoin:miter;stroke-miterlimit:4;stroke-dasharray:none;stroke-opacity:1;display:inline"
           d="M 264.65485,281.35459 L 307.5534,299.12372 L 307.54729,299.10897 L 214.61166,74.742891 L 264.65485,281.35459" />
        <path
           id="path1399"
           style="fill:#b4b4b4;fill-opacity:1;fill-rule:evenodd;stroke:#b4b4b4;stroke-width:1;stroke-linecap:square;stroke-linejoin:miter;stroke-miterlimit:4;stroke-dasharray:none;stroke-opacity:1;display:inline"
           d="M 290.16694,342.94616 L 307.93607,300.04761 L 307.92132,300.05372 L 83.55524,392.98935 L 290.16694,342.94616" />
        <path
           id="path1407"
           style="fill:#b4b4b4;fill-opacity:1;fill-rule:evenodd;stroke:#b4b4b4;stroke-width:1;stroke-linecap:square;stroke-linejoin:miter;stroke-miterlimit:4;stroke-dasharray:none;stroke-opacity:1;display:inline"
           d="M 351.75849,317.43428 L 308.85994,299.66515 L 308.86605,299.6799 L 401.80168,524.04598 L 351.75849,317.43428" />
      </g>
    </g>
    <g
       style="display:inline"
       id="g2377"
       transform="matrix(0.491446, -0.491446, 0.483458, 0.483458, 11.9952, 306.116)">
      <path
         d="M 264.65488,281.35479 L 307.55343,299.12392 L 307.53867,299.13003 L 83.172594,392.06566 L 264.65488,281.35479"
         style="fill:#c2c2c2;fill-opacity:1;fill-rule:evenodd;stroke:#c2c2c2;stroke-width:1.0000006;stroke-linecap:square;stroke-linejoin:miter;stroke-miterlimit:4;stroke-dasharray:none;stroke-opacity:1;display:inline"
         id="path2379" />
      <path
         d="M 290.16697,342.94635 L 307.9361,300.0478 L 307.92135,300.05391 L 83.555271,392.98954 L 290.16697,342.94635"
         style="fill:#999999;fill-opacity:1;fill-rule:evenodd;stroke:#999999;stroke-width:1.0000006;stroke-linecap:square;stroke-linejoin:miter;stroke-miterlimit:4;stroke-dasharray:none;stroke-opacity:1;display:inline"
         id="path2381" />
      <path
         d="M 351.75849,317.43427 L 308.85994,299.66514 L 308.8747,299.65903 L 533.24078,206.7234 L 351.75849,317.43427"
         style="fill:#e1e1e1;fill-opacity:1;fill-rule:evenodd;stroke:#c2c2c2;stroke-width:1.0000006;stroke-linecap:square;stroke-linejoin:miter;stroke-miterlimit:4;stroke-dasharray:none;stroke-opacity:1;display:inline"
         id="path2383" />
      <path
         d="M 290.16693,342.94611 L 307.93606,300.04756 L 307.94217,300.06232 L 400.8778,524.4284 L 290.16693,342.94611"
         style="fill:#c2c2c2;fill-opacity:1;fill-rule:evenodd;stroke:#c2c2c2;stroke-width:1.0000006;stroke-linecap:square;stroke-linejoin:miter;stroke-miterlimit:4;stroke-dasharray:none;stroke-opacity:1;display:inline"
         id="path2385" />
      <path
         d="M 351.75849,317.43402 L 308.85994,299.66489 L 308.86605,299.67964 L 401.80168,524.04572 L 351.75849,317.43402"
         style="fill:#999999;fill-opacity:1;fill-rule:evenodd;stroke:#999999;stroke-width:1.0000006;stroke-linecap:square;stroke-linejoin:miter;stroke-miterlimit:4;stroke-dasharray:none;stroke-opacity:1;display:inline"
         id="path2387" />
      <path
         d="M 326.24641,255.8425 L 308.47728,298.74105 L 308.47117,298.72629 L 215.53554,74.360214 L 326.24641,255.8425"
         style="fill:#e1e1e1;fill-opacity:1;fill-rule:evenodd;stroke:#c2c2c2;stroke-width:1.0000006;stroke-linecap:square;stroke-linejoin:miter;stroke-miterlimit:4;stroke-dasharray:none;stroke-opacity:1;display:inline"
         id="path2389" />
      <path
         d="M 264.65485,281.3546 L 307.5534,299.12373 L 307.53864,299.12984 L 83.172563,392.06547 L 264.65485,281.3546"
         style="fill:#e1e1e1;fill-opacity:1;fill-rule:evenodd;stroke:#c2c2c2;stroke-width:1.0000006;stroke-linecap:square;stroke-linejoin:miter;stroke-miterlimit:4;stroke-dasharray:none;stroke-opacity:1;display:inline"
         id="path2391" />
      <path
         d="M 290.16693,342.94637 L 307.93606,300.04782 L 307.94217,300.06258 L 400.8778,524.42866 L 290.16693,342.94637"
         style="fill:#e1e1e1;fill-opacity:1;fill-rule:evenodd;stroke:#c2c2c2;stroke-width:1.0000006;stroke-linecap:square;stroke-linejoin:miter;stroke-miterlimit:4;stroke-dasharray:none;stroke-opacity:1;display:inline"
         id="path2393" />
      <g
         id="g2395">
        <path
           id="path2397"
           style="fill:#b4b4b4;fill-opacity:1;fill-rule:evenodd;stroke:#b4b4b4;stroke-width:1;stroke-linecap:square;stroke-linejoin:miter;stroke-miterlimit:4;stroke-dasharray:none;stroke-opacity:1;display:inline"
           d="M 326.2464,255.84271 L 308.47727,298.74126 L 308.49202,298.73515 L 532.8581,205.79952 L 326.2464,255.84271" />
        <path
           id="path2399"
           style="fill:#b4b4b4;fill-opacity:1;fill-rule:evenodd;stroke:#b4b4b4;stroke-width:1;stroke-linecap:square;stroke-linejoin:miter;stroke-miterlimit:4;stroke-dasharray:none;stroke-opacity:1;display:inline"
           d="M 264.65485,281.35459 L 307.5534,299.12372 L 307.54729,299.10897 L 214.61166,74.742891 L 264.65485,281.35459" />
        <path
           id="path2401"
           style="fill:#b4b4b4;fill-opacity:1;fill-rule:evenodd;stroke:#b4b4b4;stroke-width:1;stroke-linecap:square;stroke-linejoin:miter;stroke-miterlimit:4;stroke-dasharray:none;stroke-opacity:1;display:inline"
           d="M 290.16694,342.94616 L 307.93607,300.04761 L 307.92132,300.05372 L 83.55524,392.98935 L 290.16694,342.94616" />
        <path
           id="path2403"
           style="fill:#b4b4b4;fill-opacity:1;fill-rule:evenodd;stroke:#b4b4b4;stroke-width:1;stroke-linecap:square;stroke-linejoin:miter;stroke-miterlimit:4;stroke-dasharray:none;stroke-opacity:1;display:inline"
           d="M 351.75849,317.43428 L 308.85994,299.66515 L 308.86605,299.6799 L 401.80168,524.04598 L 351.75849,317.43428" />
      </g>
    </g>
  </g>
  <g
     inkscape:groupmode="layer"
     id="layer6"
     inkscape:label="p2"
     style="display:inline">
    <g
       style="display:inline"
       id="g1536"
       transform="translate(-55.8718, -38.6023)">
      <path
         d="M 316.93813,337.99683 L 363.37116,337.99683 L 363.35986,338.00812 L 191.63751,509.73048 L 316.93813,337.99683"
         style="fill:#c2c2c2;fill-opacity:1;fill-rule:evenodd;stroke:#c2c2c2;stroke-width:1.00000036;stroke-linecap:square;stroke-linejoin:miter;stroke-miterlimit:4;stroke-dasharray:none;stroke-opacity:1;display:inline"
         id="path1538" />
      <path
         d="M 364.07826,385.13697 L 364.07826,338.70394 L 364.06697,338.71523 L 192.34461,510.43759 L 364.07826,385.13697"
         style="fill:#999999;fill-opacity:1;fill-rule:evenodd;stroke:#999999;stroke-width:1.00000036;stroke-linecap:square;stroke-linejoin:miter;stroke-miterlimit:4;stroke-dasharray:none;stroke-opacity:1;display:inline"
         id="path1540" />
      <path
         d="M 411.21837,337.99687 L 364.78534,337.99687 L 364.79664,337.98558 L 536.51899,166.26322 L 411.21837,337.99687"
         style="fill:#c2c2c2;fill-opacity:1;fill-rule:evenodd;stroke:#c2c2c2;stroke-width:1.00000036;stroke-linecap:square;stroke-linejoin:miter;stroke-miterlimit:4;stroke-dasharray:none;stroke-opacity:1;display:inline"
         id="path1542" />
      <path
         d="M 364.07824,290.85673 L 364.07824,337.28976 L 364.08953,337.27847 L 535.81189,165.55611 L 364.07824,290.85673"
         style="fill:#999999;fill-opacity:1;fill-rule:evenodd;stroke:#999999;stroke-width:1.00000036;stroke-linecap:square;stroke-linejoin:miter;stroke-miterlimit:4;stroke-dasharray:none;stroke-opacity:1;display:inline"
         id="path1544" />
      <path
         d="M 364.07813,385.13677 L 364.07813,338.70374 L 364.08942,338.71504 L 535.81178,510.43739 L 364.07813,385.13677"
         style="fill:#c2c2c2;fill-opacity:1;fill-rule:evenodd;stroke:#c2c2c2;stroke-width:1.00000036;stroke-linecap:square;stroke-linejoin:miter;stroke-miterlimit:4;stroke-dasharray:none;stroke-opacity:1;display:inline"
         id="path1546" />
      <path
         d="M 411.21827,337.99664 L 364.78524,337.99664 L 364.79653,338.00793 L 536.51889,509.73029 L 411.21827,337.99664"
         style="fill:#999999;fill-opacity:1;fill-rule:evenodd;stroke:#999999;stroke-width:1.00000036;stroke-linecap:square;stroke-linejoin:miter;stroke-miterlimit:4;stroke-dasharray:none;stroke-opacity:1;display:inline"
         id="path1548" />
      <path
         d="M 364.07817,290.85653 L 364.07817,337.28956 L 364.06688,337.27826 L 192.34452,165.55591 L 364.07817,290.85653"
         style="fill:#c2c2c2;fill-opacity:1;fill-rule:evenodd;stroke:#c2c2c2;stroke-width:1.00000036;stroke-linecap:square;stroke-linejoin:miter;stroke-miterlimit:4;stroke-dasharray:none;stroke-opacity:1;display:inline"
         id="path1550" />
      <path
         d="M 316.93803,337.99666 L 363.37106,337.99666 L 363.35977,337.98537 L 191.63741,166.26301 L 316.93803,337.99666"
         style="fill:#999999;fill-opacity:1;fill-rule:evenodd;stroke:#999999;stroke-width:1.00000036;stroke-linecap:square;stroke-linejoin:miter;stroke-miterlimit:4;stroke-dasharray:none;stroke-opacity:1;display:inline"
         id="path1552" />
    </g>
  </g>
  <g
     inkscape:groupmode="layer"
     id="layer2"
     inkscape:label="podstawowa"
     style="display:inline">
    <path
       id="path2122"
       style="fill:#ffffff;fill-opacity:1;fill-rule:evenodd;stroke:#000000;stroke-width:1;stroke-linecap:square;stroke-linejoin:miter;stroke-miterlimit:4;stroke-opacity:1;stroke-dasharray:none;display:inline"
       d="m 273.85736,266.28355 32.8331,32.8331 -0.016,0 -242.85201,0 210.03488,-32.8331" />
    <path
       id="path5805"
       style="fill:#000000;fill-opacity:1;fill-rule:evenodd;stroke:#000000;stroke-width:1;stroke-linecap:square;stroke-linejoin:miter;stroke-miterlimit:4;stroke-opacity:1;stroke-dasharray:none;display:inline"
       d="m 273.85736,332.94975 32.8331,-32.8331 -0.016,0 -242.85201,0 210.03488,32.8331" />
    <path
       id="path8724"
       style="fill:#ffffff;fill-opacity:1;fill-rule:evenodd;stroke:#000000;stroke-width:1;stroke-linecap:square;stroke-linejoin:miter;stroke-miterlimit:4;stroke-opacity:1;stroke-dasharray:none;display:inline"
       d="m 340.52353,332.9498 -32.8331,-32.8331 0.016,0 242.85201,0 -210.03488,32.8331" />
    <path
       id="path8726"
       style="fill:#000000;fill-opacity:1;fill-rule:evenodd;stroke:#000000;stroke-width:1;stroke-linecap:square;stroke-linejoin:miter;stroke-miterlimit:4;stroke-opacity:1;stroke-dasharray:none;display:inline"
       d="m 340.52353,266.2836 -32.8331,32.8331 0.016,0 242.85201,0 -210.03488,-32.8331" />
    <path
       id="path8740"
       style="fill:#ffffff;fill-opacity:1;fill-rule:evenodd;stroke:#000000;stroke-width:1;stroke-linecap:square;stroke-linejoin:miter;stroke-miterlimit:4;stroke-opacity:1;stroke-dasharray:none;display:inline"
       d="m 273.85734,332.94973 32.8331,-32.8331 0,0.016 0,242.85201 -32.8331,-210.03488" />
    <path
       id="path8742"
       style="fill:#000000;fill-opacity:1;fill-rule:evenodd;stroke:#000000;stroke-width:1;stroke-linecap:square;stroke-linejoin:miter;stroke-miterlimit:4;stroke-opacity:1;stroke-dasharray:none;display:inline"
       d="m 340.52354,332.94973 -32.8331,-32.8331 0,0.016 0,242.85201 32.8331,-210.03488" />
    <path
       id="path8748"
       style="fill:#000000;fill-opacity:1;fill-rule:evenodd;stroke:#000000;stroke-width:1;stroke-linecap:square;stroke-linejoin:miter;stroke-miterlimit:4;stroke-opacity:1;stroke-dasharray:none;display:inline"
       d="m 273.8573,266.28357 32.8331,32.8331 0,-0.016 0,-242.85201 -32.8331,210.03488" />
    <path
       id="path8746"
       style="fill:#ffffff;fill-opacity:1;fill-rule:evenodd;stroke:#000000;stroke-width:1;stroke-linecap:square;stroke-linejoin:miter;stroke-miterlimit:4;stroke-opacity:1;stroke-dasharray:none;display:inline;opacity:1"
       d="m 340.5235,266.28357 -32.8331,32.8331 0,-0.016 0,-242.85201 32.8331,210.03488" />
  </g>
  <g
     inkscape:groupmode="layer"
     id="layer5"
     inkscape:label="napisy"
     style="display:inline">
    <g
       transform="matrix(-0.707107, 0.707107, -0.707107, -0.707107, 739.596, 296.412)"
       id="g3743">
      <path
         id="path3745"
         d="m 340.86581,139.07293 -11.14703,58.09234 0,0"
         style="fill:none;stroke:#000000;stroke-width:1px;stroke-linecap:butt;stroke-linejoin:miter;stroke-opacity:1" />
      <path
         style="fill:none;stroke:#000000;stroke-width:1px;stroke-linecap:butt;stroke-linejoin:miter;stroke-opacity:1"
         d="m 284.61725,197.16527 -11.14703,-58.09234 0,0"
         id="path3747" />
    </g>
    <g
       id="g1461"
       inkscape:label="p4"
       style="display:inline"
       transform="translate(1.1823, -1.05875)" />
    <g
       style="display:inline"
       id="g1463"
       transform="translate(1.1823, -1.05875)" />
    <g
       style="display:inline"
       id="g1465"
       transform="translate(1.1823, -1.05875)" />
    <g
       id="g1467"
       inkscape:label="p3"
       style="display:inline"
       transform="translate(1.1823, -1.05875)" />
    <g
       id="g1469"
       inkscape:label="p2"
       style="display:inline"
       transform="translate(1.1823, -1.05875)" />
    <g
       id="g1471"
       inkscape:label="podstawowa"
       style="display:inline"
       transform="translate(1.1823, -1.05875)" />
    <path
       d="m 294.12404,12.387486 8.39843,0 10.60547,20 0,-20 7.12891,0 0,29.160156 -8.39844,0 -10.60547,-20 0,20 -7.1289,0 0,-29.160156"
       style="font-size:40px;font-style:normal;font-variant:normal;font-weight:bold;font-stretch:normal;text-align:start;line-height:125%;writing-mode:lr-tb;text-anchor:start;fill:#000000;fill-opacity:1;stroke:none;font-family:Bitstream Vera Sans"
       id="path1476" />
    <path
       d="m 572.23012,285.03658 20.29297,0 0,5.68359 -12.77344,0 0,5.42968 12.01172,0 0,5.6836 -12.01172,0 0,6.67969 13.20312,0 0,5.68359 -20.72265,0 0,-29.16015"
       style="font-size:40px;font-style:normal;font-variant:normal;font-weight:bold;font-stretch:normal;text-align:start;line-height:125%;writing-mode:lr-tb;text-anchor:start;fill:#000000;fill-opacity:1;stroke:none;display:inline;font-family:Bitstream Vera Sans"
       id="path1478" />
    <path
       d="m 316.7803,560.1914 0,6.17188 c -1.6016,-0.71612 -3.1641,-1.25649 -4.68751,-1.6211 -1.52346,-0.36455 -2.96226,-0.54685 -4.3164,-0.54687 -1.7969,2e-5 -3.12502,0.24742 -3.98438,0.74219 -0.85938,0.49481 -1.28908,1.26304 -1.28906,2.30468 -2e-5,0.78128 0.28646,1.39325 0.85936,1.83594 0.58593,0.42971 1.64062,0.8008 3.16408,1.11328 l 3.20311,0.64453 c 3.24218,0.65106 5.54687,1.64065 6.91407,2.96875 1.36717,1.32814 2.05076,3.21616 2.05078,5.66407 -2e-5,3.21615 -0.95704,5.61198 -2.8711,7.1875 -1.90105,1.5625 -4.8112,2.34375 -8.73046,2.34375 -1.84898,0 -3.70444,-0.17578 -5.5664,-0.52735 -1.86199,-0.35156 -3.72397,-0.87239 -5.58594,-1.5625 l 0,-6.34765 c 1.86197,0.98959 3.65884,1.73828 5.39062,2.24609 1.74479,0.4948 3.42447,0.74219 5.03906,0.74219 1.64062,0 2.89712,-0.27343 3.76953,-0.82031 0.87239,-0.54687 1.30857,-1.32812 1.30859,-2.34375 -2e-5,-0.91145 -0.29949,-1.61458 -0.89844,-2.10938 -0.58594,-0.49478 -1.76431,-0.93749 -3.53515,-1.32812 l -2.91016,-0.64454 c -2.91666,-0.62498 -5.05209,-1.62108 -6.40625,-2.98828 -1.34114,-1.36717 -2.01172,-3.20961 -2.01172,-5.52734 0,-2.90362 0.9375,-5.13669 2.81251,-6.69922 1.875,-1.56247 4.57029,-2.34372 8.08593,-2.34375 1.60155,3e-5 3.24868,0.12373 4.94142,0.37109 1.69268,0.23441 3.444,0.59248 5.25391,1.07422"
       style="font-size:40px;font-style:normal;font-variant:normal;font-weight:bold;font-stretch:normal;text-align:start;line-height:125%;writing-mode:lr-tb;text-anchor:start;fill:#000000;fill-opacity:1;stroke:none;display:inline;font-family:Bitstream Vera Sans"
       id="path1482" />
    <path
       id="path1486"
       d="m 369.23622,133.21729 1.65175,-4.22367 11.47017,0.61258 -9.38436,-5.94619 1.39823,-3.57539 13.54716,8.59338 -1.65176,4.22367 -11.47016,-0.61259 9.38819,5.93638 -1.40207,3.5852 -13.54715,-8.59337 m 6.59163,-16.85538 1.65175,-4.22367 11.47016,0.6126 -9.38435,-5.94621 1.39823,-3.57539 13.54715,8.59338 -1.65175,4.22367 -11.47015,-0.6126 9.38818,5.93639 -1.40206,3.5852 -13.54716,-8.59337 m 6.59163,-16.855379 3.98725,-10.195743 2.63939,1.677696 -2.50835,6.414075 2.52322,1.598292 2.36239,-6.040827 2.63554,1.687524 -2.35854,6.031002 3.10575,1.962 2.58903,-6.620352 2.64708,1.658049 -4.0756,10.421643 -13.54716,-8.593359"
       style="font-size:18px;font-style:oblique;font-variant:normal;font-weight:bold;font-stretch:normal;text-align:start;line-height:100%;writing-mode:lr-tb;text-anchor:start;fill:#000000;fill-opacity:1;stroke:none;display:inline;font-family:Bitstream Vera Sans" />
    <path
       id="path1488"
       d="m 470.39792,223.88948 10.31814,-3.65885 0.45913,3.09358 -6.49109,2.30175 0.44314,2.95379 6.11337,-2.16781 0.44919,3.09709 -6.10341,2.16429 0.54944,3.63225 6.69985,-2.37577 0.479,3.08653 -10.54677,3.73991 -2.36999,-15.86676 m 13.91657,-4.93486 4.27436,-1.5157 7.04436,9.07286 -1.64671,-10.98688 3.6183,-1.28306 2.37002,15.86677 -4.27437,1.51571 -7.04438,-9.07286 1.65666,10.98336 -3.62824,1.28658 -2.37,-15.86678 m 17.05773,-6.04872 10.31815,-3.65883 0.45915,3.09359 -6.4911,2.30174 0.44315,2.95378 6.11335,-2.1678 0.44918,3.09709 -6.1034,2.16428 0.54944,3.63227 6.69984,-2.3758 0.47903,3.08655 -10.54679,3.73992 -2.37,-15.86679"
       style="font-size:18px;font-style:oblique;font-variant:normal;font-weight:bold;font-stretch:normal;text-align:start;line-height:100%;writing-mode:lr-tb;text-anchor:start;fill:#000000;fill-opacity:1;stroke:none;display:inline;font-family:Bitstream Vera Sans" />
    <path
       id="path1490"
       d="m 474.61555,358.68934 10.13336,4.14321 -1.71799,2.61333 -6.37484,-2.60646 -1.63682,2.4984 6.00386,2.45479 -1.72775,2.60936 -5.99411,-2.45082 -2.00942,3.0753 6.57984,2.69029 -1.69846,2.62133 -10.35789,-4.23503 8.80022,-13.4137 m 23.51546,10.15029 -1.86658,2.83744 c -0.58643,-0.66514 -1.20167,-1.23195 -1.84572,-1.7004 -0.6414,-0.47493 -1.30378,-0.85209 -1.98714,-1.13151 -0.93722,-0.38319 -1.72926,-0.53611 -2.37616,-0.4588 -0.64042,0.08 -1.06706,0.38032 -1.27993,0.90097 -0.13574,0.33194 -0.12832,0.63882 0.0224,0.9207 0.15978,0.27804 0.56495,0.6526 1.21554,1.1237 l 1.38679,1.01139 c 1.15556,0.85229 1.90633,1.70999 2.25232,2.57309 0.35511,0.85926 0.33309,1.777 -0.066,2.75323 -0.64664,1.58151 -1.76756,2.60448 -3.36274,3.06891 -1.58869,0.46706 -3.39508,0.28683 -5.41913,-0.54075 -0.94371,-0.38586 -1.84823,-0.85824 -2.71356,-1.41715 -0.85885,-0.55625 -1.66356,-1.18912 -2.41416,-1.8986 l 1.89276,-2.92931 c 0.66071,0.85507 1.34725,1.57255 2.05967,2.1525 0.71892,0.5826 1.47539,1.03622 2.2694,1.36087 0.85908,0.35125 1.62731,0.46027 2.30469,0.32702 0.68386,-0.13058 1.13757,-0.46922 1.36111,-1.0159 0.14635,-0.35796 0.13908,-0.6838 -0.0218,-0.9775 -0.1583,-0.30022 -0.60166,-0.72077 -1.33003,-1.26166 l -1.37703,-1.00741 c -1.01802,-0.74286 -1.67988,-1.53002 -1.9856,-2.36148 -0.30572,-0.83145 -0.26168,-1.72879 0.13216,-2.69202 0.62,-1.51641 1.69552,-2.49337 3.22654,-2.93088 1.54015,-0.44133 3.29301,-0.26018 5.25851,0.54343 0.78749,0.322 1.56922,0.71382 2.34523,1.17539 0.78514,0.45777 1.55804,0.98269 2.31868,1.57474 m 4.56116,1.32937 10.13336,4.14323 -1.71801,2.61332 -6.37483,-2.60647 -1.63682,2.4984 6.00387,2.4548 -1.72776,2.60936 -5.99411,-2.45081 -2.00941,3.07529 6.57984,2.6903 -1.69847,2.62132 -10.35789,-4.23503 8.80023,-13.41371"
       style="font-size:18px;font-style:oblique;font-variant:normal;font-weight:bold;font-stretch:normal;text-align:start;line-height:100%;writing-mode:lr-tb;text-anchor:start;fill:#000000;fill-opacity:1;stroke:none;display:inline;font-family:Bitstream Vera Sans" />
    <path
       id="path1492"
       d="m 390.17013,469.21252 -3.34851,0.56808 c 0.0865,-0.88252 0.0824,-1.71899 -0.0138,-2.50955 -0.0896,-0.79304 -0.26512,-1.53481 -0.52643,-2.22529 -0.35839,-0.94696 -0.78634,-1.63077 -1.28382,-2.05144 -0.49505,-0.41409 -1.00559,-0.52159 -1.53167,-0.32249 -0.3354,0.12694 -0.55487,0.34157 -0.65846,0.6439 -0.0946,0.30642 -0.0925,0.8582 0.006,1.65534 l 0.20512,1.70411 c 0.16397,1.4265 0.048,2.56046 -0.34776,3.40189 -0.38671,0.8455 -1.07325,1.45492 -2.05965,1.82824 -1.59799,0.60475 -3.11053,0.48177 -4.53763,-0.36897 -1.4246,-0.84416 -2.52392,-2.28881 -3.2979,-4.33395 -0.36088,-0.95354 -0.63172,-1.93738 -0.81254,-2.95154 -0.17834,-1.00756 -0.26372,-2.02776 -0.25615,-3.06058 l 3.43356,-0.61155 c -0.17533,1.06624 -0.23229,2.05768 -0.17124,2.97425 0.0637,0.92314 0.24736,1.78585 0.55099,2.58815 0.3285,0.86802 0.77235,1.50447 1.33155,1.90932 0.56165,0.41142 1.11869,0.5126 1.67108,0.30354 0.36168,-0.13686 0.59513,-0.3643 0.70032,-0.68227 0.11172,-0.32049 0.11736,-0.93152 0.0167,-1.83317 l -0.20138,-1.69426 c -0.15029,-1.25126 -0.0254,-2.27209 0.37459,-3.06251 0.40001,-0.79042 1.08666,-1.36978 2.05992,-1.73812 1.53222,-0.57988 2.98015,-0.45876 4.34381,0.3633 1.3727,0.82621 2.43485,2.23231 3.18647,4.21827 0.30112,0.7957 0.54722,1.63479 0.73839,2.51723 0.20017,0.88652 0.34287,1.80986 0.42808,2.76998 m 5.51007,14.55941 -3.34851,0.56809 c 0.0865,-0.88252 0.0824,-1.71898 -0.0138,-2.50954 -0.0896,-0.79305 -0.26512,-1.53483 -0.52643,-2.22531 -0.35838,-0.94697 -0.78634,-1.63076 -1.28383,-2.05143 -0.49504,-0.41409 -1.00558,-0.5216 -1.53165,-0.32248 -0.33541,0.12691 -0.55489,0.34154 -0.65847,0.64388 -0.0946,0.30642 -0.0925,0.85821 0.006,1.65534 l 0.20513,1.70412 c 0.16396,1.4265 0.048,2.56046 -0.34764,3.40191 -0.38672,0.84551 -1.07327,1.4549 -2.05967,1.82823 -1.59799,0.60474 -3.11053,0.48178 -4.53763,-0.36896 -1.4246,-0.84415 -2.52392,-2.2888 -3.29792,-4.33396 -0.36086,-0.95354 -0.6317,-1.93738 -0.81252,-2.95152 -0.17834,-1.00756 -0.26372,-2.02778 -0.25614,-3.0606 l 3.43355,-0.61154 c -0.17533,1.06625 -0.23229,2.05768 -0.17124,2.97425 0.0637,0.92313 0.24736,1.78586 0.55098,2.58815 0.32851,0.86803 0.77236,1.50447 1.33156,1.90933 0.56166,0.41142 1.11869,0.51259 1.67109,0.30355 0.36166,-0.1369 0.59512,-0.36432 0.70031,-0.68228 0.11172,-0.32049 0.11736,-0.93153 0.0167,-1.83318 l -0.20139,-1.69426 c -0.15029,-1.25125 -0.0254,-2.27208 0.3746,-3.06251 0.40001,-0.7904 1.08666,-1.3698 2.05992,-1.73811 1.53222,-0.57989 2.98015,-0.45876 4.34381,0.3633 1.3727,0.82621 2.43485,2.23228 3.18647,4.21827 0.30111,0.79569 0.54722,1.63477 0.73839,2.51722 0.20017,0.88653 0.34285,1.80985 0.42808,2.76998 m 2.13605,4.24367 3.87496,10.23893 -3.08324,0.52409 -2.4377,-6.44126 -2.94382,0.50516 2.29586,6.0664 -3.08698,0.51422 -2.29212,-6.05656 -3.61992,0.6257 2.51612,6.6484 -3.07578,0.5438 -3.96083,-10.4658 15.81345,-2.70308"
       style="font-size:18px;font-style:oblique;font-variant:normal;font-weight:bold;font-stretch:normal;text-align:start;line-height:100%;writing-mode:lr-tb;text-anchor:start;fill:#000000;fill-opacity:1;stroke:none;display:inline;font-family:Bitstream Vera Sans" />
    <path
       id="text1435"
       d="m 497.59363,477.83519 0,4.07344 c -1.05705,-0.47264 -2.0883,-0.82927 -3.09375,-1.06992 -1.00548,-0.2406 -1.95509,-0.36092 -2.84883,-0.36093 -1.18595,1e-5 -2.06251,0.16329 -2.62969,0.48984 -0.56719,0.32658 -0.85078,0.83361 -0.85078,1.52109 0,0.51563 0.18905,0.91954 0.56719,1.21172 0.3867,0.28361 1.08281,0.52852 2.08828,0.73476 l 2.11406,0.42539 c 2.13983,0.42971 3.66092,1.08283 4.56328,1.95938 0.90233,0.87658 1.3535,2.12267 1.35352,3.73828 -2e-5,2.12266 -0.63166,3.70391 -1.89492,4.74375 -1.25471,1.03125 -3.17541,1.54688 -5.76211,1.54688 -1.22032,0 -2.44493,-0.11602 -3.67383,-0.34805 -1.22892,-0.23203 -2.45781,-0.57578 -3.68672,-1.03125 l 0,-4.18945 c 1.22891,0.65312 2.41484,1.14726 3.55782,1.48242 1.15155,0.32656 2.26014,0.48984 3.32578,0.48984 1.08279,0 1.9121,-0.18046 2.48789,-0.5414 0.57576,-0.36094 0.86366,-0.87656 0.86367,-1.54688 -1e-5,-0.60156 -0.19767,-1.06561 -0.59297,-1.39218 -0.38673,-0.32656 -1.16446,-0.61875 -2.3332,-0.87657 l -1.92071,-0.42539 c -1.925,-0.41249 -3.33437,-1.06992 -4.22812,-1.97227 -0.88516,-0.90233 -1.32774,-2.11835 -1.32774,-3.64804 0,-1.9164 0.61875,-3.39022 1.85625,-4.42148 1.2375,-1.03124 3.0164,-1.54687 5.33672,-1.54688 1.05702,1e-5 2.14413,0.0816 3.26133,0.24492 1.11718,0.1547 2.27303,0.39104 3.46758,0.70898 m 5.6332,-0.60586 13.39337,0 0,3.75118 -8.43048,0 0,3.58359 7.92773,0 0,3.75118 -7.92773,0 0,4.40859 8.71407,0 0,3.75117 -13.67696,0 0,-19.24571"
       style="font-size:12px;font-style:normal;font-weight:normal;line-height:125%;fill:#000000;fill-opacity:1;stroke:none;font-family:Bitstream Vera Sans" />
    <path
       id="text1439"
       d="m 482.38914,99.570355 5.54298,0 6.9996,13.200005 0,-13.200005 4.70508,0 0,19.245695 -5.54296,0 -6.99961,-13.2 0,13.2 -4.70509,0 0,-19.245695 m 22.12032,0 13.39336,0 0,3.751165 -8.43047,0 0,3.5836 7.92772,0 0,3.75117 -7.92772,0 0,4.40859 8.71405,0 0,3.75117 -13.67694,0 0,-19.245694"
       style="font-size:12px;font-style:normal;font-weight:normal;line-height:125%;fill:#000000;fill-opacity:1;stroke:none;display:inline;font-family:Bitstream Vera Sans" />
    <g
       id="g3715">
      <g
         id="g3705">
        <path
           style="fill:none;stroke:#000000;stroke-width:1px;stroke-linecap:butt;stroke-linejoin:miter;stroke-opacity:1"
           d="m 340.86581,139.07293 -11.14703,58.09234 0,0"
           id="path3687" />
        <path
           id="path3703"
           d="m 284.61725,197.16527 -11.14703,-58.09234 0,0"
           style="fill:none;stroke:#000000;stroke-width:1px;stroke-linecap:butt;stroke-linejoin:miter;stroke-opacity:1" />
      </g>
      <g
         transform="matrix(0, -1, 1, 0, 6.67343, 606.911)"
         id="g3709">
        <path
           id="path3711"
           d="m 340.86581,139.07293 -11.14703,58.09234 0,0"
           style="fill:none;stroke:#000000;stroke-width:1px;stroke-linecap:butt;stroke-linejoin:miter;stroke-opacity:1" />
        <path
           style="fill:none;stroke:#000000;stroke-width:1px;stroke-linecap:butt;stroke-linejoin:miter;stroke-opacity:1"
           d="m 284.61725,197.16527 -11.14703,-58.09234 0,0"
           id="path3713" />
      </g>
    </g>
    <g
       id="g3725"
       transform="matrix(-1, 0, 0, -1, 614.635, 600.005)">
      <path
         style="fill:none;stroke:#000000;stroke-width:1px;stroke-linecap:butt;stroke-linejoin:miter;stroke-opacity:1"
         d="m 340.86581,139.07293 -11.14703,58.09234 0,0"
         id="path3727" />
      <path
         id="path3729"
         d="m 284.61725,197.16527 -11.14703,-58.09234 0,0"
         style="fill:none;stroke:#000000;stroke-width:1px;stroke-linecap:butt;stroke-linejoin:miter;stroke-opacity:1" />
    </g>
    <g
       transform="matrix(0, 1, -1, 0, 609.004, -7.59986)"
       id="g3731">
      <path
         id="path3733"
         d="m 340.86581,139.07293 -11.14703,58.09234 0,0"
         style="fill:none;stroke:#000000;stroke-width:1px;stroke-linecap:butt;stroke-linejoin:miter;stroke-opacity:1" />
      <path
         style="fill:none;stroke:#000000;stroke-width:1px;stroke-linecap:butt;stroke-linejoin:miter;stroke-opacity:1"
         d="m 284.61725,197.16527 -11.14703,-58.09234 0,0"
         id="path3735" />
    </g>
    <g
       id="g3749"
       transform="matrix(-0.707107, -0.707107, 0.707107, -0.707107, 311.065, 730.813)">
      <path
         style="fill:none;stroke:#000000;stroke-width:1px;stroke-linecap:butt;stroke-linejoin:miter;stroke-opacity:1"
         d="m 340.86581,139.07293 -11.14703,58.09234 0,0"
         id="path3751" />
      <path
         id="path3753"
         d="m 284.61725,197.16527 -11.14703,-58.09234 0,0"
         style="fill:none;stroke:#000000;stroke-width:1px;stroke-linecap:butt;stroke-linejoin:miter;stroke-opacity:1" />
    </g>
    <g
       transform="matrix(0.707107, -0.707107, 0.707107, 0.707107, -123.337, 302.242)"
       id="g3755">
      <path
         id="path3757"
         d="m 340.86581,139.07293 -11.14703,58.09234 0,0"
         style="fill:none;stroke:#000000;stroke-width:1px;stroke-linecap:butt;stroke-linejoin:miter;stroke-opacity:1" />
      <path
         style="fill:none;stroke:#000000;stroke-width:1px;stroke-linecap:butt;stroke-linejoin:miter;stroke-opacity:1"
         d="m 284.61725,197.16527 -11.14703,-58.09234 0,0"
         id="path3759" />
    </g>
    <g
       id="g3761"
       transform="matrix(0.707107, 0.707107, -0.707107, 0.707107, 305.476, -132.159)">
      <path
         style="fill:none;stroke:#000000;stroke-width:1px;stroke-linecap:butt;stroke-linejoin:miter;stroke-opacity:1"
         d="m 340.86581,139.07293 -11.14703,58.09234 0,0"
         id="path3763" />
      <path
         id="path3765"
         d="m 284.61725,197.16527 -11.14703,-58.09234 0,0"
         style="fill:none;stroke:#000000;stroke-width:1px;stroke-linecap:butt;stroke-linejoin:miter;stroke-opacity:1" />
    </g>
    <text
       xml:space="preserve"
       style="font-size:20px;font-style:normal;font-weight:normal;line-height:125%;fill:#000000;fill-opacity:1;stroke:none;font-family:Bitstream Vera Sans"
       x="-52.292233"
       y="368.63409"
       id="text3769"
       sodipodi:linespacing="125%"
       transform="matrix(0.220972,-0.97528,0.97528,0.220972,0,0)"><tspan
         sodipodi:role="line"
         id="tspan3771"
         x="-52.292233"
         y="368.63409"
         style="font-size:20px;font-style:normal;font-variant:normal;font-weight:normal;font-stretch:normal;text-align:start;line-height:125%;writing-mode:lr-tb;text-anchor:start;font-family:Arial;-inkscape-font-specification:Arial">N 1/4 NE</tspan></text>
    <text
       transform="matrix(0.569419,-0.822048,0.822048,0.569419,0,0)"
       sodipodi:linespacing="125%"
       id="text3773"
       y="428.97385"
       x="106.01514"
       style="font-size:20px;font-style:normal;font-weight:normal;line-height:125%;fill:#000000;fill-opacity:1;stroke:none;font-family:Bitstream Vera Sans"
       xml:space="preserve"><tspan
         style="font-size:20px;font-style:normal;font-variant:normal;font-weight:normal;font-stretch:normal;text-align:start;line-height:125%;writing-mode:lr-tb;text-anchor:start;font-family:Arial;-inkscape-font-specification:Arial"
         y="428.97385"
         x="106.01514"
         id="tspan3775"
         sodipodi:role="line">NE 1/4 N</tspan></text>
    <text
       transform="matrix(0.845878,-0.533377,0.533377,0.845878,0,0)"
       sodipodi:linespacing="125%"
       id="text3777"
       y="419.76843"
       x="277.52734"
       style="font-size:20px;font-style:normal;font-weight:normal;line-height:125%;fill:#000000;fill-opacity:1;stroke:none;font-family:Bitstream Vera Sans"
       xml:space="preserve"><tspan
         style="font-size:20px;font-style:normal;font-variant:normal;font-weight:normal;font-stretch:normal;text-align:start;line-height:125%;writing-mode:lr-tb;text-anchor:start;font-family:Arial;-inkscape-font-specification:Arial"
         y="419.76843"
         x="277.52734"
         id="tspan3779"
         sodipodi:role="line">NE 1/4 E</tspan></text>
    <text
       xml:space="preserve"
       style="font-size:20px;font-style:normal;font-weight:normal;line-height:125%;fill:#000000;fill-opacity:1;stroke:none;font-family:Bitstream Vera Sans"
       x="426.66104"
       y="353.23032"
       id="text3781"
       sodipodi:linespacing="125%"
       transform="matrix(0.983915,-0.178636,0.178636,0.983915,0,0)"><tspan
         sodipodi:role="line"
         id="tspan3783"
         x="426.66104"
         y="353.23032"
         style="font-size:20px;font-style:normal;font-variant:normal;font-weight:normal;font-stretch:normal;text-align:start;line-height:125%;writing-mode:lr-tb;text-anchor:start;font-family:Arial;-inkscape-font-specification:Arial">E 1/4 NE</tspan></text>
    <text
       xml:space="preserve"
       style="font-size:20px;font-style:normal;font-weight:normal;line-height:125%;fill:#000000;fill-opacity:1;stroke:none;font-family:Bitstream Vera Sans"
       x="542.12946"
       y="224.9295"
       id="text3785"
       sodipodi:linespacing="125%"
       transform="matrix(0.97528,0.220972,-0.220972,0.97528,0,0)"><tspan
         sodipodi:role="line"
         id="tspan3787"
         x="542.12946"
         y="224.9295"
         style="font-size:20px;font-style:normal;font-variant:normal;font-weight:normal;font-stretch:normal;text-align:start;line-height:125%;writing-mode:lr-tb;text-anchor:start;font-family:Arial;-inkscape-font-specification:Arial">E 1/4 SE</tspan></text>
    <text
       transform="matrix(0.822048,0.569419,-0.569419,0.822048,0,0)"
       sodipodi:linespacing="125%"
       id="text3789"
       y="73.626953"
       x="599.28326"
       style="font-size:20px;font-style:normal;font-weight:normal;line-height:125%;fill:#000000;fill-opacity:1;stroke:none;font-family:Bitstream Vera Sans"
       xml:space="preserve"><tspan
         style="font-size:20px;font-style:normal;font-variant:normal;font-weight:normal;font-stretch:normal;text-align:start;line-height:125%;writing-mode:lr-tb;text-anchor:start;font-family:Arial;-inkscape-font-specification:Arial"
         y="73.626953"
         x="599.28326"
         id="tspan3791"
         sodipodi:role="line">SE 1/4 E</tspan></text>
    <text
       transform="matrix(0.533377,0.845878,-0.845878,0.533377,0,0)"
       sodipodi:linespacing="125%"
       id="text3793"
       y="-100.5173"
       x="592.75378"
       style="font-size:20px;font-style:normal;font-weight:normal;line-height:125%;fill:#000000;fill-opacity:1;stroke:none;font-family:Bitstream Vera Sans"
       xml:space="preserve"><tspan
         style="font-size:20px;font-style:normal;font-variant:normal;font-weight:normal;font-stretch:normal;text-align:start;line-height:125%;writing-mode:lr-tb;text-anchor:start;font-family:Arial;-inkscape-font-specification:Arial"
         y="-100.5173"
         x="592.75378"
         id="tspan3795"
         sodipodi:role="line">SE 1/4 S</tspan></text>
    <text
       xml:space="preserve"
       style="font-size:20px;font-style:normal;font-weight:normal;line-height:125%;fill:#000000;fill-opacity:1;stroke:none;font-family:Bitstream Vera Sans"
       x="524.62268"
       y="-247.15997"
       id="text3797"
       sodipodi:linespacing="125%"
       transform="matrix(0.178636,0.983915,-0.983915,0.178636,0,0)"><tspan
         sodipodi:role="line"
         id="tspan3799"
         x="524.62268"
         y="-247.15997"
         style="font-size:20px;font-style:normal;font-variant:normal;font-weight:normal;font-stretch:normal;text-align:start;line-height:125%;writing-mode:lr-tb;text-anchor:start;font-family:Arial;-inkscape-font-specification:Arial">S 1/4 SE</tspan></text>
    <text
       xml:space="preserve"
       style="font-size:19.99999619px;font-style:normal;font-weight:normal;text-align:end;line-height:125%;text-anchor:end;fill:#000000;fill-opacity:1;stroke:none;font-family:Bitstream Vera Sans"
       x="-398.66879"
       y="376.76749"
       id="text3801"
       sodipodi:linespacing="125%"
       transform="matrix(0.22097203,-0.97528015,0.97528015,0.22097203,0,0)"><tspan
         sodipodi:role="line"
         id="tspan3803"
         x="-398.66879"
         y="376.76749"
         style="font-size:19.99999619px;font-style:normal;font-variant:normal;font-weight:normal;font-stretch:normal;text-align:end;line-height:125%;writing-mode:lr-tb;text-anchor:end;font-family:Arial;-inkscape-font-specification:Arial">S 1/4 SO</tspan></text>
    <text
       transform="matrix(0.61911909,-0.78529711,0.78529711,0.61911909,0,0)"
       sodipodi:linespacing="125%"
       id="text3805"
       y="446.5639"
       x="-220.66443"
       style="font-size:19.99999809px;font-style:normal;font-weight:normal;text-align:end;line-height:125%;text-anchor:end;fill:#000000;fill-opacity:1;stroke:none;font-family:Bitstream Vera Sans"
       xml:space="preserve"><tspan
         style="font-size:19.99999809px;font-style:normal;font-variant:normal;font-weight:normal;font-stretch:normal;text-align:end;line-height:125%;writing-mode:lr-tb;text-anchor:end;fill:#000000;font-family:Arial;-inkscape-font-specification:Arial"
         y="446.5639"
         x="-220.66443"
         id="tspan3807"
         sodipodi:role="line">SO 1/4 S</tspan></text>
    <text
       transform="matrix(0.84587774,-0.53337684,0.53337684,0.84587774,0,0)"
       sodipodi:linespacing="125%"
       id="text3809"
       y="429.31747"
       x="-71.996391"
       style="font-size:20.00000572px;font-style:normal;font-weight:normal;text-align:end;line-height:125%;text-anchor:end;fill:#000000;fill-opacity:1;stroke:none;font-family:Bitstream Vera Sans"
       xml:space="preserve"><tspan
         style="font-size:20.00000572px;font-style:normal;font-variant:normal;font-weight:normal;font-stretch:normal;text-align:end;line-height:125%;writing-mode:lr-tb;text-anchor:end;font-family:Arial;-inkscape-font-specification:Arial"
         y="429.31747"
         x="-71.996391"
         id="tspan3811"
         sodipodi:role="line">SO 1/4 O</tspan></text>
    <text
       xml:space="preserve"
       style="font-size:20px;font-style:normal;font-weight:normal;text-align:end;line-height:125%;text-anchor:end;fill:#000000;fill-opacity:1;stroke:none;font-family:Bitstream Vera Sans"
       x="71.658142"
       y="361.42487"
       id="text3813"
       sodipodi:linespacing="125%"
       transform="matrix(0.982058,-0.18858,0.18858,0.982058,0,0)"><tspan
         sodipodi:role="line"
         id="tspan3815"
         x="71.658142"
         y="361.42487"
         style="font-size:20px;font-style:normal;font-variant:normal;font-weight:normal;font-stretch:normal;text-align:end;line-height:125%;writing-mode:lr-tb;text-anchor:end;font-family:Arial;-inkscape-font-specification:Arial">O 1/4 SO</tspan></text>
    <text
       xml:space="preserve"
       style="font-size:20px;font-style:normal;font-weight:normal;text-align:end;line-height:125%;text-anchor:end;fill:#000000;fill-opacity:1;stroke:none;font-family:Bitstream Vera Sans"
       x="192.19078"
       y="235.78845"
       id="text3817"
       sodipodi:linespacing="125%"
       transform="matrix(0.97528,0.220972,-0.220972,0.97528,0,0)"><tspan
         sodipodi:role="line"
         id="tspan3819"
         x="192.19078"
         y="235.78845"
         style="font-size:20px;font-style:normal;font-variant:normal;font-weight:normal;font-stretch:normal;text-align:end;line-height:125%;writing-mode:lr-tb;text-anchor:end;font-family:Arial;-inkscape-font-specification:Arial">O 1/4 NO</tspan></text>
    <text
       transform="matrix(0.827766,0.561073,-0.561073,0.827766,0,0)"
       sodipodi:linespacing="125%"
       id="text3821"
       y="83.477188"
       x="249.56215"
       style="font-size:20px;font-style:normal;font-weight:normal;text-align:end;line-height:125%;text-anchor:end;fill:#000000;fill-opacity:1;stroke:none;font-family:Bitstream Vera Sans"
       xml:space="preserve"><tspan
         style="font-size:20px;font-style:normal;font-variant:normal;font-weight:normal;font-stretch:normal;text-align:end;line-height:125%;writing-mode:lr-tb;text-anchor:end;font-family:Arial;-inkscape-font-specification:Arial"
         y="83.477188"
         x="249.56215"
         id="tspan3823"
         sodipodi:role="line">NO 1/4 O</tspan></text>
    <text
       transform="matrix(0.533377,0.845878,-0.845878,0.533377,0,0)"
       sodipodi:linespacing="125%"
       id="text3825"
       y="-88.321777"
       x="238.45009"
       style="font-size:20px;font-style:normal;font-weight:normal;text-align:end;line-height:125%;text-anchor:end;fill:#000000;fill-opacity:1;stroke:none;font-family:Bitstream Vera Sans"
       xml:space="preserve"><tspan
         style="font-size:20px;font-style:normal;font-variant:normal;font-weight:normal;font-stretch:normal;text-align:end;line-height:125%;writing-mode:lr-tb;text-anchor:end;fill:#000000;font-family:Arial;-inkscape-font-specification:Arial"
         y="-88.321777"
         x="238.45009"
         id="tspan3827"
         sodipodi:role="line">NO 1/4 N</tspan></text>
    <text
       xml:space="preserve"
       style="font-size:20px;font-style:normal;font-weight:normal;text-align:end;line-height:125%;text-anchor:end;fill:#000000;fill-opacity:1;stroke:none;font-family:Bitstream Vera Sans"
       x="177.73235"
       y="-234.39554"
       id="text3829"
       sodipodi:linespacing="125%"
       transform="matrix(0.18858,0.982058,-0.982058,0.18858,0,0)"><tspan
         sodipodi:role="line"
         id="tspan3831"
         x="177.73235"
         y="-234.39554"
         style="font-size:20px;font-style:normal;font-variant:normal;font-weight:normal;font-stretch:normal;text-align:end;line-height:125%;writing-mode:lr-tb;text-anchor:end;font-family:Arial;-inkscape-font-specification:Arial">N 1/4 NO</tspan></text>
    <g
       style="font-size:38.55369949px;font-style:normal;font-variant:normal;font-weight:bold;font-stretch:normal;text-align:start;line-height:125%;letter-spacing:0px;word-spacing:0px;writing-mode:lr-tb;text-anchor:start;fill:#000000;fill-opacity:1;stroke:none;font-family:Sans;-inkscape-font-specification:Sans Bold"
       id="text3114">
      <path
         d="m 36.22205,290.2889 c -2.20882,3e-5 -3.921898,0.81578 -5.139239,2.44726 -1.217363,1.63152 -1.826039,3.92818 -1.826029,6.88997 -10e-6,2.94926 0.608666,5.23964 1.826029,6.87114 1.217341,1.63151 2.930419,2.44726 5.139239,2.44726 2.221337,0 3.940689,-0.81575 5.158063,-2.44726 1.21733,-1.6315 1.826006,-3.92188 1.82603,-6.87114 -2.4e-5,-2.96179 -0.6087,-5.25845 -1.82603,-6.88997 -1.217374,-1.63148 -2.936726,-2.44723 -5.158063,-2.44726 m 0,-5.25219 c 4.51799,3e-5 8.057096,1.29268 10.617327,3.87796 2.560177,2.58533 3.840279,6.15581 3.84031,10.71146 -3.1e-5,4.54312 -1.280133,8.10732 -3.84031,10.69262 -2.560231,2.58531 -6.099337,3.87796 -10.617327,3.87796 -4.505474,0 -8.044579,-1.29265 -10.617328,-3.87796 -2.56021,-2.5853 -3.840312,-6.1495 -3.84031,-10.69262 -2e-6,-4.55565 1.2801,-8.12613 3.84031,-10.71146 2.572749,-2.58528 6.111854,-3.87793 10.617328,-3.87796"
         style=""
         id="path3139" />
    </g>
    <g
       transform="matrix(0.93875615,-0.3445822,0.3445822,0.93875615,0,0)"
       inkscape:transform-center-x="-31.734204"
       inkscape:transform-center-y="-3.3208905"
       style="font-size:21.6185112px;font-style:italic;font-variant:normal;font-weight:bold;font-stretch:normal;text-align:start;line-height:125%;letter-spacing:0px;word-spacing:0px;writing-mode:lr-tb;text-anchor:start;fill:#000000;fill-opacity:1;stroke:none;font-family:Sans;-inkscape-font-specification:Sans Bold Italic"
       id="text3130">
      <path
         d="m -26.230227,392.22368 c -1.3e-5,-1.23855 -0.281504,-2.18155 -0.844473,-2.82899 -0.555956,-0.64741 -1.365242,-0.97113 -2.42786,-0.97114 -1.407464,1e-5 -2.589725,0.63337 -3.546787,1.90006 -0.950038,1.25969 -1.425053,2.83955 -1.425048,4.73961 -5e-6,1.21042 0.277967,2.14989 0.833917,2.81843 0.555938,0.66854 1.330038,1.00281 2.322301,1.00281 0.809278,0 1.527079,-0.16889 2.153406,-0.50668 0.633344,-0.34483 1.171695,-0.85151 1.615055,-1.52006 0.422224,-0.64038 0.745939,-1.3617 0.971144,-2.16396 0.232217,-0.80224 0.348332,-1.6256 0.348345,-2.47008 m -2.681202,-6.74523 c 2.097096,10e-6 3.782522,0.58411 5.056283,1.75228 1.280767,1.16116 1.921159,2.68121 1.921176,4.56016 -1.7e-5,1.28079 -0.197061,2.4912 -0.591131,3.63123 -0.387067,1.14004 -0.953567,2.16397 -1.699502,3.07177 -0.91486,1.11893 -1.9986,1.95636 -3.251221,2.51231 -1.245609,0.54891 -2.68473,0.82336 -4.317369,0.82336 -2.090077,0 -3.771984,-0.58058 -5.045727,-1.74173 -1.273748,-1.16114 -1.910621,-2.68471 -1.91062,-4.57071 -10e-7,-1.28781 0.193524,-2.50174 0.580575,-3.64179 0.387048,-1.14003 0.957067,-2.16747 1.710058,-3.08232 0.900767,-1.11188 1.973951,-1.94228 3.219554,-2.4912 1.252627,-0.54889 2.695267,-0.82335 4.327924,-0.82336"
         style=""
         id="path3154" />
      <path
         d="m -6.7862329,386.25959 -0.6544666,3.33567 c -0.7952251,-0.39408 -1.5798806,-0.68613 -2.3539688,-0.87615 -0.7741107,-0.19703 -1.5306177,-0.29555 -2.2695217,-0.29556 -1.013376,1e-5 -1.805068,0.15835 -2.37508,0.47501 -0.562989,0.31669 -0.844479,0.75652 -0.844473,1.31949 -6e-6,0.35892 0.123146,0.64041 0.369457,0.84448 0.253335,0.19705 0.770574,0.39058 1.551719,0.58057 l 1.667834,0.41168 c 1.39337,0.35188 2.413774,0.86208 3.0612152,1.53061 0.6544535,0.66151 0.9816865,1.52006 0.9817,2.57564 -1.35e-5,1.71007 -0.6509609,3.08233 -1.952844,4.11681 -1.2948692,1.03448 -3.0365932,1.55172 -5.2251772,1.55172 -1.02041,0 -2.037296,-0.095 -3.050659,-0.28501 -1.006333,-0.19001 -1.99155,-0.4715 -2.955656,-0.84447 l 0.643911,-3.43068 c 0.935956,0.54188 1.843763,0.94652 2.723425,1.21393 0.886693,0.26742 1.759314,0.40113 2.617867,0.40113 0.928913,0 1.681901,-0.19 2.258966,-0.57002 0.584084,-0.38001 0.876131,-0.86558 0.87614,-1.45672 -9e-6,-0.38704 -0.130198,-0.68613 -0.390568,-0.89725 -0.260388,-0.21815 -0.830407,-0.43982 -1.710058,-0.66502 l -1.657279,-0.41168 c -1.22449,-0.3026 -2.135817,-0.78113 -2.733981,-1.43561 -0.598171,-0.65445 -0.897255,-1.50245 -0.897253,-2.54397 -2e-6,-1.63967 0.626315,-2.95213 1.878953,-3.93736 1.259667,-0.99224 2.95213,-1.48837 5.077394,-1.48838 0.8515,10e-6 1.724122,0.0669 2.6178666,0.20056 0.9007587,0.12669 1.8156037,0.32021 2.7445375,0.58058"
         style=""
         id="path3156" />
      <path
         d="m 7.7175922,392.22368 c -1.33e-5,-1.23855 -0.2815041,-2.18155 -0.8444731,-2.82899 -0.5559567,-0.64741 -1.3652426,-0.97113 -2.4278602,-0.97114 -1.4074637,1e-5 -2.5897249,0.63337 -3.54678694,1.90006 -0.95003777,1.25969 -1.42505341,2.83955 -1.42504835,4.73961 -5.06e-6,1.21042 0.27796706,2.14989 0.83391718,2.81843 0.55593834,0.66854 1.33003791,1.00281 2.32230101,1.00281 0.8092777,0 1.5270791,-0.16889 2.1534064,-0.50668 0.6333438,-0.34483 1.1716949,-0.85151 1.6150548,-1.52006 0.4222241,-0.64038 0.7459385,-1.3617 0.971144,-2.16396 0.232217,-0.80224 0.3483319,-1.6256 0.3483452,-2.47008 m -2.6812021,-6.74523 c 2.0970955,10e-6 3.7825213,0.58411 5.0562829,1.75228 1.280767,1.16116 1.921158,2.68121 1.921176,4.56016 -1.8e-5,1.28079 -0.197061,2.4912 -0.591131,3.63123 -0.387067,1.14004 -0.953567,2.16397 -1.6995022,3.07177 -0.9148603,1.11893 -1.9985996,1.95636 -3.2512214,2.51231 -1.2456086,0.54891 -2.6847301,0.82336 -4.3173687,0.82336 -2.09007657,0 -3.7719838,-0.58058 -5.0457268,-1.74173 -1.2737483,-1.16114 -1.9106211,-2.68471 -1.9106203,-4.57071 -8e-7,-1.28781 0.1935241,-2.50174 0.5805752,-3.64179 0.3870484,-1.14003 0.9570672,-2.16747 1.710058,-3.08232 0.9007674,-1.11188 1.97395085,-1.94228 3.21955371,-2.4912 1.25262759,-0.54889 2.69526759,-0.82335 4.32792459,-0.82336"
         style=""
         id="path3158" />
    </g>
    <g
       transform="matrix(0.94878146,0.31593313,-0.31593313,0.94878146,0,0)"
       inkscape:transform-center-x="19.687678"
       inkscape:transform-center-y="-11.340118"
       style="font-size:21.6185112px;font-style:italic;font-variant:normal;font-weight:bold;font-stretch:normal;text-align:start;line-height:125%;letter-spacing:0px;word-spacing:0px;writing-mode:lr-tb;text-anchor:start;fill:#000000;fill-opacity:1;stroke:none;font-family:Sans;-inkscape-font-specification:Sans Bold Italic"
       id="text3134">
      <path
         d="m 174.80398,173.43767 c -2e-5,-1.23855 -0.28151,-2.18155 -0.84448,-2.82899 -0.55595,-0.64741 -1.36524,-0.97113 -2.42786,-0.97114 -1.40746,1e-5 -2.58972,0.63337 -3.54678,1.90006 -0.95004,1.25968 -1.42506,2.83955 -1.42505,4.73961 -1e-5,1.21041 0.27796,2.14989 0.83391,2.81843 0.55594,0.66854 1.33004,1.00281 2.32231,1.00281 0.80927,0 1.52707,-0.16889 2.1534,-0.50669 0.63335,-0.34482 1.1717,-0.8515 1.61506,-1.52005 0.42222,-0.64038 0.74594,-1.3617 0.97114,-2.16396 0.23222,-0.80224 0.34833,-1.6256 0.34835,-2.47008 m -2.68121,-6.74523 c 2.0971,1e-5 3.78253,0.58411 5.05629,1.75228 1.28076,1.16116 1.92116,2.68121 1.92117,4.56015 -1e-5,1.2808 -0.19706,2.49121 -0.59113,3.63124 -0.38707,1.14004 -0.95357,2.16396 -1.6995,3.07177 -0.91486,1.11893 -1.9986,1.95636 -3.25122,2.51231 -1.24561,0.5489 -2.68473,0.82336 -4.31737,0.82336 -2.09008,0 -3.77198,-0.58058 -5.04573,-1.74173 -1.27375,-1.16115 -1.91062,-2.68471 -1.91062,-4.57071 0,-1.28781 0.19353,-2.50174 0.58058,-3.64179 0.38705,-1.14003 0.95706,-2.16747 1.71006,-3.08233 0.90076,-1.11187 1.97395,-1.94227 3.21955,-2.49119 1.25263,-0.54889 2.69527,-0.82335 4.32792,-0.82336"
         style=""
         id="path3161" />
      <path
         d="m 183.39649,166.97745 4.53904,0 3.61013,10.91481 2.12173,-10.91481 3.84236,0 -3.07177,15.75998 -4.53905,0 -3.61012,-10.91482 -2.11118,10.91482 -3.85291,0 3.07177,-15.75998"
         style=""
         id="path3163" />
      <path
         d="m 211.28522,173.43767 c -2e-5,-1.23855 -0.28151,-2.18155 -0.84448,-2.82899 -0.55595,-0.64741 -1.36524,-0.97113 -2.42786,-0.97114 -1.40746,1e-5 -2.58972,0.63337 -3.54678,1.90006 -0.95004,1.25968 -1.42506,2.83955 -1.42505,4.73961 -1e-5,1.21041 0.27796,2.14989 0.83391,2.81843 0.55594,0.66854 1.33004,1.00281 2.3223,1.00281 0.80928,0 1.52708,-0.16889 2.15341,-0.50669 0.63335,-0.34482 1.1717,-0.8515 1.61506,-1.52005 0.42222,-0.64038 0.74593,-1.3617 0.97114,-2.16396 0.23222,-0.80224 0.34833,-1.6256 0.34835,-2.47008 m -2.68121,-6.74523 c 2.0971,1e-5 3.78252,0.58411 5.05629,1.75228 1.28076,1.16116 1.92115,2.68121 1.92117,4.56015 -2e-5,1.2808 -0.19706,2.49121 -0.59113,3.63124 -0.38707,1.14004 -0.95357,2.16396 -1.6995,3.07177 -0.91486,1.11893 -1.9986,1.95636 -3.25122,2.51231 -1.24561,0.5489 -2.68473,0.82336 -4.31737,0.82336 -2.09008,0 -3.77198,-0.58058 -5.04573,-1.74173 -1.27375,-1.16115 -1.91062,-2.68471 -1.91062,-4.57071 0,-1.28781 0.19353,-2.50174 0.58058,-3.64179 0.38705,-1.14003 0.95706,-2.16747 1.71005,-3.08233 0.90077,-1.11187 1.97396,-1.94227 3.21956,-2.49119 1.25263,-0.54889 2.69527,-0.82335 4.32792,-0.82336"
         style=""
         id="path3165" />
    </g>
    <g
       style="font-size:26.40055847px;font-style:normal;font-variant:normal;font-weight:bold;font-stretch:normal;text-align:start;line-height:125%;letter-spacing:0px;word-spacing:0px;writing-mode:lr-tb;text-anchor:start;fill:#000000;fill-opacity:1;stroke:none;font-family:Sans;-inkscape-font-specification:Sans Bold"
       id="text3117">
      <path
         d="m 110.2189,477.8348 0,4.07352 c -1.05707,-0.47265 -2.08834,-0.8293 -3.09382,-1.06994 -1.0055,-0.24062 -1.95513,-0.36093 -2.84889,-0.36095 -1.18597,2e-5 -2.06255,0.1633 -2.62974,0.48986 -0.56721,0.32658 -0.85081,0.83362 -0.8508,1.52112 -10e-6,0.51565 0.18906,0.91957 0.5672,1.21175 0.38672,0.28361 1.08283,0.52854 2.08832,0.73478 l 2.11411,0.4254 c 2.13988,0.42971 3.661,1.08284 4.56338,1.95941 0.90235,0.87659 1.35353,2.12271 1.35354,3.73836 -1e-5,2.12271 -0.63167,3.70399 -1.89496,4.74385 -1.25473,1.03128 -3.17547,1.54691 -5.76223,1.54691 -1.22035,0 -2.44498,-0.11602 -3.67391,-0.34805 -1.228932,-0.23204 -2.457863,-0.57579 -3.686792,-1.03127 l 0,-4.18955 c 1.228929,0.65315 2.41489,1.1473 3.557892,1.48246 1.15158,0.32657 2.26019,0.48986 3.32585,0.48985 1.08282,10e-6 1.91214,-0.18047 2.48794,-0.54142 0.57578,-0.36094 0.86368,-0.87657 0.86369,-1.5469 -1e-5,-0.60157 -0.19767,-1.06564 -0.59298,-1.39222 -0.38674,-0.32656 -1.16449,-0.61876 -2.33325,-0.87658 l -1.92075,-0.4254 c -1.925043,-0.4125 -3.334447,-1.06994 -4.228212,-1.97231 -0.885177,-0.90235 -1.327764,-2.11839 -1.327762,-3.64812 -2e-6,-1.91643 0.61876,-3.39029 1.856289,-4.42158 1.237521,-1.03125 3.016465,-1.54689 5.336835,-1.54691 1.05704,2e-5 2.14417,0.0817 3.26139,0.24493 1.1172,0.15471 2.27308,0.39104 3.46766,0.709"
         style=""
         id="path3142" />
      <path
         d="m 124.64381,480.47743 c -1.51254,2e-5 -2.68561,0.55862 -3.51922,1.67582 -0.83361,1.11722 -1.25042,2.68991 -1.25041,4.71807 -10e-6,2.01958 0.4168,3.58797 1.25041,4.70518 0.83361,1.11721 2.00668,1.67582 3.51922,1.67581 1.52111,10e-6 2.69848,-0.5586 3.53211,-1.67581 0.83359,-1.11721 1.2504,-2.6856 1.25041,-4.70518 -1e-5,-2.02816 -0.41682,-3.60085 -1.25041,-4.71807 -0.83363,-1.1172 -2.011,-1.6758 -3.53211,-1.67582 m 0,-3.59656 c 3.0938,2e-5 5.51729,0.8852 7.27047,2.65553 1.75314,1.77036 2.62972,4.21533 2.62974,7.33492 -2e-5,3.11101 -0.8766,5.55168 -2.62974,7.32203 -1.75318,1.77035 -4.17667,2.65552 -7.27047,2.65552 -3.08523,0 -5.50872,-0.88517 -7.27047,-2.65552 -1.75316,-1.77035 -2.62974,-4.21102 -2.62974,-7.32203 0,-3.11959 0.87658,-5.56456 2.62974,-7.33492 1.76175,-1.77033 4.18524,-2.65551 7.27047,-2.65553"
         style=""
         id="path3144" />
    </g>
    <g
       style="font-size:26.40055847px;font-style:normal;font-variant:normal;font-weight:bold;font-stretch:normal;text-align:start;line-height:125%;letter-spacing:0px;word-spacing:0px;writing-mode:lr-tb;text-anchor:start;fill:#000000;fill-opacity:1;stroke:none;font-family:Sans;-inkscape-font-specification:Sans Bold"
       id="text3121">
      <path
         d="m 98.107876,99.91841 5.543084,0 6.99976,13.20028 0,-13.20028 4.70518,0 0,19.24611 -5.54309,0 -6.99976,-13.20028 0,13.20028 -4.705174,0 0,-19.24611"
         style=""
         id="path3134" />
      <path
         d="m 129.02025,103.16692 c -1.51254,10e-6 -2.68561,0.55862 -3.51922,1.67581 -0.83361,1.11723 -1.25042,2.68992 -1.25041,4.71807 -1e-5,2.01958 0.4168,3.58797 1.25041,4.70518 0.83361,1.11721 2.00668,1.67582 3.51922,1.67582 1.52111,0 2.69848,-0.55861 3.53211,-1.67582 0.83359,-1.11721 1.2504,-2.6856 1.25041,-4.70518 -1e-5,-2.02815 -0.41682,-3.60084 -1.25041,-4.71807 -0.83363,-1.11719 -2.011,-1.6758 -3.53211,-1.67581 m 0,-3.596564 c 3.0938,1.9e-5 5.51729,0.885194 7.27047,2.655524 1.75314,1.77037 2.62972,4.21534 2.62974,7.33492 -2e-5,3.11101 -0.8766,5.55169 -2.62974,7.32203 -1.75318,1.77035 -4.17667,2.65553 -7.27047,2.65553 -3.08523,0 -5.50872,-0.88518 -7.27047,-2.65553 -1.75316,-1.77034 -2.62974,-4.21102 -2.62974,-7.32203 0,-3.11958 0.87658,-5.56455 2.62974,-7.33492 1.76175,-1.77033 4.18524,-2.655505 7.27047,-2.655524"
         style=""
         id="path3136" />
    </g>
    <g
       transform="matrix(0.34829955,-0.93738329,0.93738329,0.34829955,0,0)"
       inkscape:transform-center-x="-1.7835537"
       inkscape:transform-center-y="-24.217392"
       style="font-size:21.6185112px;font-style:italic;font-variant:normal;font-weight:bold;font-stretch:normal;text-align:start;line-height:125%;letter-spacing:0px;word-spacing:0px;writing-mode:lr-tb;text-anchor:start;fill:#000000;fill-opacity:1;stroke:none;font-family:Sans;-inkscape-font-specification:Sans Bold Italic"
       id="text3125">
      <path
         d="m -384.92149,377.39392 -0.65447,3.33567 c -0.79522,-0.39407 -1.57988,-0.68612 -2.35397,-0.87614 -0.77411,-0.19703 -1.53061,-0.29555 -2.26952,-0.29556 -1.01337,1e-5 -1.80507,0.15835 -2.37508,0.47501 -0.56299,0.31669 -0.84448,0.75652 -0.84447,1.31949 -1e-5,0.35891 0.12315,0.64041 0.36946,0.84448 0.25333,0.19705 0.77057,0.39057 1.55172,0.58057 l 1.66783,0.41168 c 1.39337,0.35187 2.41377,0.86208 3.06121,1.53061 0.65446,0.66151 0.98169,1.52006 0.9817,2.57564 -10e-6,1.71006 -0.65096,3.08233 -1.95284,4.11681 -1.29487,1.03448 -3.03659,1.55172 -5.22518,1.55172 -1.02041,0 -2.03729,-0.095 -3.05066,-0.28501 -1.00633,-0.19001 -1.99155,-0.4715 -2.95565,-0.84448 l 0.64391,-3.43067 c 0.93595,0.54188 1.84376,0.94652 2.72342,1.21393 0.8867,0.26742 1.75932,0.40113 2.61787,0.40113 0.92891,0 1.6819,-0.19001 2.25897,-0.57002 0.58408,-0.38001 0.87613,-0.86558 0.87614,-1.45672 -1e-5,-0.38704 -0.1302,-0.68613 -0.39057,-0.89725 -0.26039,-0.21815 -0.83041,-0.43982 -1.71006,-0.66502 l -1.65728,-0.41168 c -1.22449,-0.3026 -2.13581,-0.78113 -2.73398,-1.43561 -0.59817,-0.65446 -0.89725,-1.50245 -0.89725,-2.54397 0,-1.63968 0.62631,-2.95213 1.87895,-3.93736 1.25967,-0.99224 2.95213,-1.48837 5.0774,-1.48838 0.8515,10e-6 1.72412,0.0669 2.61786,0.20056 0.90076,0.12669 1.81561,0.32021 2.74454,0.58057"
         style=""
         id="path3147" />
      <path
         d="m -370.10099,377.39392 -0.65446,3.33567 c -0.79523,-0.39407 -1.57988,-0.68612 -2.35397,-0.87614 -0.77411,-0.19703 -1.53062,-0.29555 -2.26952,-0.29556 -1.01338,1e-5 -1.80507,0.15835 -2.37508,0.47501 -0.56299,0.31669 -0.84448,0.75652 -0.84448,1.31949 0,0.35891 0.12315,0.64041 0.36946,0.84448 0.25333,0.19705 0.77057,0.39057 1.55172,0.58057 l 1.66783,0.41168 c 1.39337,0.35187 2.41378,0.86208 3.06122,1.53061 0.65445,0.66151 0.98168,1.52006 0.9817,2.57564 -2e-5,1.71006 -0.65096,3.08233 -1.95285,4.11681 -1.29487,1.03448 -3.03659,1.55172 -5.22517,1.55172 -1.02041,0 -2.0373,-0.095 -3.05066,-0.28501 -1.00634,-0.19001 -1.99155,-0.4715 -2.95566,-0.84448 l 0.64391,-3.43067 c 0.93596,0.54188 1.84377,0.94652 2.72343,1.21393 0.88669,0.26742 1.75931,0.40113 2.61786,0.40113 0.92892,0 1.68191,-0.19001 2.25897,-0.57002 0.58408,-0.38001 0.87613,-0.86558 0.87614,-1.45672 -1e-5,-0.38704 -0.1302,-0.68613 -0.39057,-0.89725 -0.26039,-0.21815 -0.8304,-0.43982 -1.71006,-0.66502 l -1.65727,-0.41168 c -1.22449,-0.3026 -2.13582,-0.78113 -2.73399,-1.43561 -0.59817,-0.65446 -0.89725,-1.50245 -0.89725,-2.54397 0,-1.63968 0.62632,-2.95213 1.87895,-3.93736 1.25967,-0.99224 2.95213,-1.48837 5.0774,-1.48838 0.8515,10e-6 1.72412,0.0669 2.61787,0.20056 0.90075,0.12669 1.8156,0.32021 2.74453,0.58057"
         style=""
         id="path3149" />
      <path
         d="m -355.59716,383.35802 c -2e-5,-1.23855 -0.28151,-2.18155 -0.84448,-2.82899 -0.55595,-0.64742 -1.36524,-0.97113 -2.42786,-0.97114 -1.40746,1e-5 -2.58972,0.63336 -3.54678,1.90006 -0.95004,1.25968 -1.42506,2.83955 -1.42505,4.73961 -10e-6,1.21041 0.27797,2.14989 0.83392,2.81843 0.55593,0.66854 1.33003,1.00281 2.3223,1.00281 0.80928,0 1.52708,-0.16889 2.1534,-0.50669 0.63335,-0.34482 1.1717,-0.8515 1.61506,-1.52005 0.42222,-0.64038 0.74594,-1.3617 0.97114,-2.16396 0.23222,-0.80224 0.34833,-1.6256 0.34835,-2.47008 m -2.6812,-6.74523 c 2.09709,10e-6 3.78252,0.58411 5.05628,1.75228 1.28077,1.16116 1.92116,2.68121 1.92117,4.56015 -1e-5,1.2808 -0.19706,2.49121 -0.59113,3.63124 -0.38706,1.14004 -0.95356,2.16396 -1.6995,3.07177 -0.91486,1.11893 -1.9986,1.95636 -3.25122,2.51231 -1.24561,0.5489 -2.68473,0.82336 -4.31737,0.82336 -2.09008,0 -3.77198,-0.58058 -5.04573,-1.74173 -1.27374,-1.16115 -1.91062,-2.68471 -1.91062,-4.57071 0,-1.28781 0.19353,-2.50174 0.58058,-3.64179 0.38705,-1.14003 0.95707,-2.16747 1.71006,-3.08233 0.90076,-1.11187 1.97395,-1.94227 3.21955,-2.49119 1.25263,-0.54889 2.69527,-0.82335 4.32793,-0.82336"
         style=""
         id="path3151" />
    </g>
    <g
       transform="matrix(0.38804247,0.92164149,-0.92164149,0.38804247,0,0)"
       inkscape:transform-center-x="-17.744507"
       inkscape:transform-center-y="21.599804"
       style="font-size:21.6185112px;font-style:italic;font-variant:normal;font-weight:bold;font-stretch:normal;text-align:start;line-height:125%;letter-spacing:0px;word-spacing:0px;writing-mode:lr-tb;text-anchor:start;fill:#000000;fill-opacity:1;stroke:none;font-family:Sans;-inkscape-font-specification:Sans Bold Italic"
       id="text3129">
      <path
         d="m 170.65322,-175.48666 4.53905,0 3.61012,10.91481 2.12174,-10.91481 3.84235,0 -3.07177,15.75998 -4.53904,0 -3.61013,-10.91482 -2.11118,10.91482 -3.85291,0 3.07177,-15.75998"
         style=""
         id="path3168" />
      <path
         d="m 188.76717,-175.48666 4.53904,0 3.61013,10.91481 2.12173,-10.91481 3.84236,0 -3.07177,15.75998 -4.53905,0 -3.61012,-10.91482 -2.11118,10.91482 -3.85291,0 3.07177,-15.75998"
         style=""
         id="path3170" />
      <path
         d="m 216.65589,-169.02644 c -1e-5,-1.23855 -0.2815,-2.18155 -0.84447,-2.82899 -0.55596,-0.64742 -1.36524,-0.97113 -2.42786,-0.97114 -1.40746,1e-5 -2.58972,0.63336 -3.54679,1.90006 -0.95003,1.25968 -1.42505,2.83955 -1.42505,4.73961 0,1.21041 0.27797,2.14989 0.83392,2.81843 0.55594,0.66854 1.33004,1.00281 2.3223,1.00281 0.80928,0 1.52708,-0.16889 2.15341,-0.50669 0.63334,-0.34482 1.17169,-0.8515 1.61505,-1.52005 0.42223,-0.64039 0.74594,-1.36171 0.97115,-2.16396 0.23222,-0.80224 0.34833,-1.6256 0.34834,-2.47008 m -2.6812,-6.74523 c 2.0971,1e-5 3.78252,0.58411 5.05628,1.75228 1.28077,1.16116 1.92116,2.68121 1.92118,4.56015 -2e-5,1.2808 -0.19706,2.49121 -0.59113,3.63124 -0.38707,1.14004 -0.95357,2.16396 -1.6995,3.07177 -0.91486,1.11893 -1.9986,1.95636 -3.25122,2.51231 -1.24561,0.5489 -2.68473,0.82336 -4.31737,0.82336 -2.09008,0 -3.77199,-0.58058 -5.04573,-1.74173 -1.27375,-1.16115 -1.91062,-2.68472 -1.91062,-4.57071 0,-1.28781 0.19352,-2.50174 0.58057,-3.64179 0.38705,-1.14003 0.95707,-2.16747 1.71006,-3.08233 0.90077,-1.11187 1.97395,-1.94227 3.21956,-2.49119 1.25262,-0.54889 2.69526,-0.82335 4.32792,-0.82336"
         style=""
         id="path3172" />
    </g>
  </g>
</svg>
